<mxfile host="Electron" modified="2023-08-02T17:23:40.103Z" agent="Mozilla/5.0 (Macintosh; Intel Mac OS X 10_15_7) AppleWebKit/537.36 (KHTML, like Gecko) draw.io/21.6.1 Chrome/112.0.5615.204 Electron/24.6.1 Safari/537.36" etag="31IHXjpViqika3uuZQ-1" version="21.6.1" type="device">
  <diagram name="Page-1" id="8lP4iPt8rzshOc7yB2go">
    <mxGraphModel dx="1040" dy="771" grid="1" gridSize="10" guides="1" tooltips="1" connect="1" arrows="1" fold="1" page="1" pageScale="1" pageWidth="850" pageHeight="1100" math="1" shadow="0">
      <root>
        <mxCell id="0" />
        <mxCell id="1" parent="0" />
        <mxCell id="HMmcT7tPpuWWO619O4wh-8" value="" style="shape=image;verticalLabelPosition=bottom;labelBackgroundColor=default;verticalAlign=top;aspect=fixed;imageAspect=0;image=data:image/png,iVBORw0KGgoAAAANSUhEUgAAAcwAAAFsCAYAAABBx4loAAAAAXNSR0IArs4c6QAAAJZlWElmTU0AKgAAAAgABAEaAAUAAAABAAAAPgEbAAUAAAABAAAARgEoAAMAAAABAAIAAIdpAAQAAAABAAAATgAAAAAAAACQAAAAAQAAAJAAAAABAASShgAHAAAAEgAAAISgAQADAAAAAQABAACgAgAEAAAAAQAAAcygAwAEAAAAAQAAAWwAAAAAQVNDSUkAAABTY3JlZW5zaG90P3LpfgAAAAlwSFlzAAAWJQAAFiUBSVIk8AAAAdZpVFh0WE1MOmNvbS5hZG9iZS54bXAAAAAAADx4OnhtcG1ldGEgeG1sbnM6eD0iYWRvYmU6bnM6bWV0YS8iIHg6eG1wdGs9IlhNUCBDb3JlIDYuMC4wIj4KICAgPHJkZjpSREYgeG1sbnM6cmRmPSJodHRwOi8vd3d3LnczLm9yZy8xOTk5LzAyLzIyLXJkZi1zeW50YXgtbnMjIj4KICAgICAgPHJkZjpEZXNjcmlwdGlvbiByZGY6YWJvdXQ9IiIKICAgICAgICAgICAgeG1sbnM6ZXhpZj0iaHR0cDovL25zLmFkb2JlLmNvbS9leGlmLzEuMC8iPgogICAgICAgICA8ZXhpZjpQaXhlbFlEaW1lbnNpb24+MzY0PC9leGlmOlBpeGVsWURpbWVuc2lvbj4KICAgICAgICAgPGV4aWY6UGl4ZWxYRGltZW5zaW9uPjQ2MDwvZXhpZjpQaXhlbFhEaW1lbnNpb24+CiAgICAgICAgIDxleGlmOlVzZXJDb21tZW50PlNjcmVlbnNob3Q8L2V4aWY6VXNlckNvbW1lbnQ+CiAgICAgIDwvcmRmOkRlc2NyaXB0aW9uPgogICA8L3JkZjpSREY+CjwveDp4bXBtZXRhPgpJcgFaAAAAHGlET1QAAAACAAAAAAAAALYAAAAoAAAAtgAAALYAAA3N68XkkQAADZlJREFUeAHs3etx2zgUBlBvTdky3JOdntJGatoNrGAEy5J8+cKLRz8smoJE4ACZby5JOf/89+fx4kGAAAECBAg8FfhHYD718SIBAgQIEPgQEJgWAgECBAgQCAgIzACSJgQIECBAQGBaAwQIECBAICAgMANImhAgQIAAAYFpDRAgQIAAgYCAwAwgaUKAAAECBASmNUCAAAECBAICAjOApAkBAgQIEBCY1gABAgQIEAgICMwAkiYECBAgQEBgWgMECBAgQCAgIDADSJoQIECAAAGBaQ0QIECAAIGAgMAMIGlCgAABAgQEpjVAgAABAgQCAgIzgKQJAQIECBAQmNYAAQIECBAICAjMAJImBAgQIEBAYFoDBAgQIEAgICAwA0iaECBAgAABgWkNECBAgACBgIDADCBpQoAAAQIEBKY1QIAAAQIEAgICM4CkCQECBAgQEJjWAAECBAgQCAgIzACSJgQIECBAQGBaAwQIECBAICAgMANImhAgQIAAAYFpDRAgQIAAgYCAwAwgaUKAAAECBASmNUCAAAECBAICAjOApAkBAgQIEBCY1gABAgQIEAgICMwAkiYECBAgQEBgWgMECBAgQCAgIDADSJoQIECAAAGBaQ0QIECAAIGAgMAMIGlCgAABAgQEpjVAgAABAgQCAgIzgKQJAQIECBAQmNYAAQIECBAICAjMAJImBAgQIEBAYFoDBAgQIEAgICAwA0iaECBAgAABgWkNECBAgACBgIDADCBpQoAAAQIEBKY1QIAAAQIEAgICM4CkCQECBAgQEJjWAAECBAgQCAgIzACSJgQIECBAQGBaAwQIECBAICAgMANImhAgQIAAAYFpDRAgQIAAgYCAwAwgaUKAAAECBASmNUCAAAECBAICAjOApAkBAgQIEBCY1gABAgQIEAgICMwAkiYECBAgQEBgWgMECBAgQCAgIDADSJoQIECAAAGBaQ0QIECAAIGAgMAMIGlCgAABAgQEpjVAgAABAgQCAgIzgKQJAQIECBAQmNYAAQIECBAICAjMAJImBAgQIEBAYFoDBAgQIEAgICAwA0iaECBAgAABgWkNECBAgACBgIDADCBpQoAAAQIEBKY1QIAAAQIEAgICM4CkCQECBAgQEJjWAAECBAgQCAgIzACSJgQIECBAQGBaAwQIECBAICAgMANImhAgQIAAAYFpDRAgQIAAgYCAwAwgaUKAAAECBASmNUCAAAECBAICAjOApAkBAgQIEBCY1gABAgQIEAgICMwAkiYECBAgQEBgWgMECBAgQCAgIDADSJoQIECAAAGBaQ0QIECAAIGAgMAMIGlCgAABAgQEpjVAgAABAgQCAgIzgKQJAQIECBAQmNYAAQIECBAICAjMAJImBAgQIEBAYFoDBAgQGFDg58+fL29vbwP2fNwuC8xx507PCRA4kUAKyPR4fX39eP7165fA/JCo90Ng1rN2JAIECIQFbgMyvzEFZXqoLrNIvWeBWc/akQgQIPBU4FFIpjfloEzbwjIp1H8IzPrmjkiAAIEPgWcBWRJdTr++/931X/mS7YoCArMitkMRIHBugWhA3ir9+PHv313C8tam5u8Cs6a2YxEgcCqBtQGZkcrK8ufPd6diM0yjZ4HZCN5hCRCYT2BrQGaRfL3y7e39Y5ewzDJtnwVmW39HJ0BgcIG9QjIzlFVl3vfy4lTs1aLdlsBsZ+/IBAgMKLB3QJYE12uV5V5hWWq03BaYLfUdmwCB7gWODMhy8PcqS6diS6H22wKz/RzoAQECHQnUCsg85NvrlXm/sMwS/TwLzH7mQk8IEGggUDsgb4d4/zRsauVU7K1V698FZusZcHwCBKoLtA7JNOB7p2CvEMLyatHPlsDsZy70hACBgwR6CMg8tEenYPPrKsurRG9bArO3GdEfAgQ2C/QUkOVgnleVLy+uW5Za/W0LzP7mRI8IEFgo0GtAlsN4fK3y0kpYllp9bgvMPudFrwgQeCIwQkCW3f+usry0dd2yNOtxW2D2OCv6RIDAXYEUlPk/UL7boLOd31+vzB0Wllmi52eB2fPs6BsBAh8CowVl6nSsqnTdcqQlLjBHmi19JXBCgd+/fw83amE53JSFOiwwQ0waESBQW2DUqjI55f9l5Hszp2K/N+qnhcDsZy70hACBvwKjhmU8KNNAheVoC15gjjZj+ktgYoGlQZlOffZyE9B3Xxspp81XSEqNcbYF5jhzpacEphZYGpYZo3VoRq9X5v4Kyywx3rPAHG/O9JjAdAJbbuxpFZjpuOmx5DSssBx76QrMsedP7wkMLbC2qrwddO3QXFpVXvvruuXVYrwtgTnenOkxgSkEtlSVLQGEZUv9tscWmG39HZ3A6QT2qiprw605BZv76FRslhj7WWCOPX96T2AogRphecTp2fVVpb/kM9QC/aazAvMbIC8TILBdoEZQlr3cOzSXfGWk7Mdl23XLryZj7hGYY86bXhMYRqB2WCaYvQJzS2V5mSBhOcxCDXRUYAaQNCFAYLlAi6Ase7klNNN702PJV0bKY6dt1y1vRcb/XWCOP4dGQKA7gdZhmUHWhOb2qlJYZv/ZngXmbDNqPAQaC4z6dZHEtkdYXvidim28DA85vMA8hNWHEjifQC9V5Vp5YblW7jzvE5jnmWsjJXCYwAhV5aPTs2l/emy5XplhXbfMEnM+C8w559WoCFQRUFVemYXl1WLWLYE568waF4GDBYTlFVhYXi1m3hKYM8+usRE4QGCGoEwse5yCvfK6yedqMe+WwJx3bo2MwO4CI4dlvoa57a/23CMVlvdUZtwnMGecVWMicIDACDf23Bt2Dsr0vG9V6fuW97xn3icwZ55dYyOwg8CoVWUZlIlBWO6wGE7+EQLz5AvA8Ak8ExixqsxBmcb1qKq83KTz/mzogdecig0gTdVEYE41nQZDYB+BEavK26BMEo+qyu2BKSz3WWljfYrAHGu+9JbA4QKjhWUZlAnnUVVZwm0JTF8hKSXPtS0wzzXfRkvgocAMQZkG96iqLAe+NjCFZal4vm2Beb45N2ICXwRGCsvbijINJlJVloNeG5gvL07Flo5n2xaYZ5tx4yVQCIwUlEW3P20uDcv05nWBKSw/wZ/wF4F5wkk3ZAJJYJSwvFdRpv6n/ekROQX70XDTD2G5iW+SNwvMSSbSMAgsERjx6yLl+NZUleX7l2y7brlEa+62AnPu+TU6Ap8ERqkqP3W6+KVuVZlP3b4VPbB5ZgGBeebZN/ZTCagq10y3U7Fr1GZ9j8CcdWaNi8BfAVXl2qUgLNfKzfo+gTnrzBoXgT8CM4RlnZt6Pi8X1y0/e/jtIiAwrQQCEwr0GpSP7ni9NwVH39jz6KslwvLebNiXBASmdUBgMoEew3JpUKYpObqyfBSY/jjBZP8gdhyOwNwR00cRaC3Q2409S4Iy2R1dVZbzcz8wXbcsjWx/FhCYnz38RmBIgd6qyjVBmeCPrirLyb0NTKdiSx3b9wQE5j0V+wgMJNBTVbk0KBNzzaqynNYyMIVlKWP7kYDAfCRjP4HOBXqqKtcGZSKuWVWWU5oDU1iWKrafCQjMZzpeI9CpQC9huSYoE2mrqvL+dLpued/F3lsBgXkr4ncCHQuMHpSJVlh2vMB07amAwHzK40UC/Qj0EpZrRVJQpkerU7Bf+62y/GpizzMBgflMx2sEOhDoISjXnnrNfD1Vla5Z5lnxvFRAYC4V055ARYEewnLLcHuqKlNQpsfb29vHsx8ElgoIzKVi2hOoJNDT10XWDvnHj3/XvnW39wnK3ShP/0EC8/RLAEBvAqrKfWbkcur1/c8foH9XVe5DevpPEZinXwIAehJQVW6fjRyUl09yY892UZ+QBQRmlvBMoKHA6FVlomt9Y08ZlKrKhot54kMLzIkn19DGEBCW2+apDMr0ScJym6d3PxYQmI9tvELgUAFBuY1XUG7z8+7lAgJzuZl3ENgsMHpYtv66iLDcvAR9wAoBgbkCzVsIbBGoeWNPCrbX19ct3f3y3pbXKm+D8tI5N/Z8mSQ7DhEQmIew+lACXwVUlV9NonvuBeVlnz9CEDXUbruAwNxu6BMIfCtQo6rMp0n3rijz4Fr8EYJ7QXnpj6oyz4vnegICs561I51QoEZVecRp1zxVOYRr/8H0R0Gpqswz47mFgMBsoe6YpxA4uqo8MijzBNWuKh8FZeqPsMyz4rmVgMBsJe+40wocXVXWCMp0jJpVpaCc9p/DVAMTmFNNp8G0FjgyLGsFZTKsFZbPgjL1Q1WZFDx6ERCYvcyEfgwtMHpQJvzaVeX3E+7Gnu+NtKgpIDBrajvWlAJHhWWNijJNSDpOeqgqPxj8IPBQQGA+pPECge8Fjrixp1ZQ5tHVurHnu9Ovl/6oKvO8eO5PQGD2Nyd6NIDAEVVlzaCsWVVGgtK1ygEWvS6+CEyLgMBCgb2ryppBmYaajlfj9GskKFN/hGVS8BhBQGCOMEv62IXA3lVl7aBMiDXCUlB2sVx14gABgXkAqo+cT2DPsGwVlGlWjqwso0GZ+qGqTAoeowkIzNFmTH+rCowelAnr6Jt6lgTlZfLc2FN1ETvYbgICczdKHzSbwF5h2aKiTHORjpseR1aVHwcI/lBVBqE061ZAYHY7NTrWUmDvG3tajOXIylJV2WJGHbO1wP8AAAD//xCFZSoAABSBSURBVO2d22HcthJA5TJSh24ZisvwLWPlNlKGr8uI6kgZuZ6lRsZCAAkQGLx48GG+QDzOUDkZLFf68u+v8kSBAATuBL5///708vIyLY2fP3/ex367vZrM4fv316ectrf6N5Ox0CgEWhP4gjBbI6e/UQm8vb2NOrTkcT0//ye5bk7FXFFK28gyhzB1ZyCAMGeIEmM0JTB7VilwJLPMyfxSgSLKVFLUuwIBhHmFKDPHKIEVskoLWZ4RpUAmq4w+alxYgADCXCCITCGfwApZpcXy61lRbhHgdYj8J5E7ZiKAMGeKFmOtQmB2WVq82FMiSrLKKo8ljUxAAGFOECSGWIfAGVGKnEZ7a9YiszxLGFmeJcd9MxJAmDNGjTFnE8iV5WiiJKvMDjk3QKA6AYRZHSkNjkYg58We0USpLGtmlSXLrzIeskqNCturEUCYV4v4heabk1WOKkoZV62vi5SK8u3t76fn5+cLPUFMFQKPBBDmIw+OFiGQmlWOKkoJQy1ZlopSxkJWKRQoVyeAMK/+BCw2/9SscmRR1lp+rSHK7fHg6yKL/ZgwnZMEEOZJcNw2HoEUWY4sShmblNIl2FqiJKsc7xlnRH0JIMy+/Om9AoHZRakISjPLWqKU8SBLjQpbCPwmgDB/s2BvQgJHshw5oxTcNbJKRDnhg8uQpySAMKcMG4MWAqkv9oxMqzSrrDk3ssqaNGlrRQIIc8WoLj6nvaxy9IxSQyPjLPmssmZWuY2JF3s0NmwhECOAMGNkOD8kgRWyyhJZ1hYlWeWQjzmDGpQAwhw0MAzrkcBeVvlYc9yjkuXX2qLcKJFVjvu0MLIRCSDMEaPCmB4IzJ5VlrzYYyFKssqHx4sDCCQTQJjJqKjYmsAKWeXZ5VcLUUr8kGXrp5j+ViKAMFeK5kJzmV2WZ7NKRLnQQ8xUliOAMJcL6dwTml2UQv9MVmklShkPWaVQoECgnADCLGdIC5UIXFGWlqLcwsKLPZUeT5qBwBPC5CEYgsAVX+yxlCVZ5RCPNYNYjADCXCygs01nhawy9+silqLc4k9WOdvPAeOdgwDCnCNOS47yalmltSjJKpf8MWFSAxFAmAMFIzYUycK03G433Z12u0JWmfNij7Uo5UFAltP+ODDwiQggzIGDJWKJZWHPz8+/fhfpfPKcXZY5XxdBlAP/cDE0CJwggDBPQGtxy54s/f5nk+es0kzNKluIUp4Bskr/J4FjCNgSQJi2fLNbzxFlqPEZ5DmjMFNk2UqUW9x5sSf0/HMOApYEEKYl3cy2S2XpdzeqPGcSZsoSbEtRklX6TznHEGhHAGG2Y73b09evX3evl14UeUpp9bmnSHGvL7ku5eXl5b4d8Z+Ur4sgyxEjx5ggYEMAYdpwTW61dlaZ0rG1PFWGMpaYNKWOyFIyuNGkSVaZ8hRRBwLXI4AwO8bcOqtMmVpNeaoo//jjj3vX//zzz6EwpeJo0tzLLFtmlMKGJVihQIHAGAQQZoc49MgqU6ZZIk+Zk4rS7evbt2/u4cO+ZpkPJzsdHGWVrUX59vb3k8ajExK6hQAEPAII0wNifTiqLP1563+sY0uqWl/mI0VlKVml7sv51CxT6vYqIsvb7TXYfWtRyiDIKoOh4CQEuhNAmI1CMIsoQzhi8pQ5uXIM3ZsjzB5LszFZ9hDlxo+vi4SeI85BYAQCCLNBFGaWpY9H5SnnfVn62aXem7Ms20qa0o8UP7PsJUqySn1a2EJgXAII0zA2K4lSMYkwfVHKtZgs9VpsaVcYtX5LNvRSTy9RCh9kKRQoEBifAMI0itGVZHmEMGdZ9qitkuuxrLKkzZJ7EWUJPe6FQHsCCNOA+QhfF6k5LV2GDWWW0s9edqnjyFmWlXsslmb9zJKsUqPDFgIQSCGAMFMoJdYhq4yDOpNl1pBmKKvsKcqNEC/2xJ8UrkBgXAIIs1JsRJZ7Rf9Ml2Rrur9Xv/e1o6zyaHwiyJQin21afY4psnRf6uktSpZgU54I6kBgXAIIs1JsVJgzyNCdsorRPVdjf4+D9um+CFRbmq4se4ty40lWWeO5og0I9CSAMCvTl//w78micndFzbXMdrUv2bqi1AnsCTNnadZdgh1BlGSVGmG2EJifAMI0iOHo2aZmeNZiV0kq4pgs5fqeMOV6ijQ1qxxBlNucXoP/cyDXKBCAwHwEEKZhzEbMNn2J1Z5+rH39rmXq27IpgtSxa1Ypx+5nlnq99ZassjVx+oNAGwII05jzKNmmiEyKRVYZk6T0J9fcr6OceVtW2tkr/tdF9upaX0OW1oRpHwL9CCDMRux7Zpt7Qjs7/ZQ2Nav0+9jLMo+ErpnnaFnlNkde7PFjzTEEViKAMBtGs0e2mSK2VASpbUk9N6v02y/NMlWWIyy/ytzIKv0IcwyBNQkgzA5xbZFtirSkHGVsR9NPlaS2cyRLqbcnTLkufGLZqVyXItIcQ5hklVtE+BcC6xNAmJ1ibJlt5krOR3Dm/hRRuv3sLctKvSPR9xYmWaUbTfYhcA0CCLNznGtmmyItKUeyCU35jCS1nRxZur8BKPR9TG1Ttnvz6ClMZOlGiX0IXIcAwhwg1pbZ5t70SiSp7bpLp64M9freZ5lHWebR0mxraSJKjSpbCFyTAMIcKO5n/spJblZZQ5KCLCer3EMck6bIUmQrEnal7LbVUpjI0iXPPgSuSQBhDhb3nGwzVX6p9VJRxASWer9bz38BSOevmekYwuTFHjdm7EPgqgQQ5qCR38s2RYBS9j7jqy1J6U/aVJHJca2i0tSs0m9XstDYXC2zTLJKPxIcQ+DaBBDmwPHXbMuVxZ4I966VTtNKljoukWZMxrps63LQ+6yEiSyVMFsIQEAJIEwlMfBWs82QEEPnak6lhShlvDFZyjU3A/WXg2sLE1EKcQoEIBAigDBDVAY752ea1pLU6beQ5Z4odRyy1SxTWFhJE1m6xNmHAAR8AgjTJzLYsQhCliJbSVKn70tJz9fYSsYoJVWWUleFKfv+0mxplvn29vedr7RNgQAEIBAjgDBjZAY4r7JsOZSRskp33rosq+dcaZYIk6xSibKFAASOCCDMI0IDXG8lztGySh+9m2W6S7PnhcnXRXzGHEMAAnECCDPOZrgrIgkpbnZVY5CjZpX+3FxhyrWz0iSr9MlyDAEIpBBAmCmUBqgjcri9vn6M5Pv7fqk8Navc+1rHR6cndmq1q597+r9/VuefmmUiyxNB5BYIQOBOAGFO8iCEhKnyOJN5tsgqBW3Oiz2xUHz79t/735yU6zpnt65I80iYiNIlxj4EIHCGAMI8Q63HPV++fOpVskxfICJPzbo+3fB+wpdlrSww1l/JeZGllpj0ZM6SKcekGbtP22ULAQhAIIUAwkyh1LmOn126wwlJU66Hsk5flFKvpix12bRWVinjc4uIT4r/PwlyTuf7+Y9K82KP8KFAAALlBBBmOUPzFvaEKZ2HpCn3uOKqKcbQhGu272aVbl8iTJmT//KP1rlzur3eD8kqlQpbCECgFgGEWYukZTuB5Vi3u5Aw5fpff/3lVvuUTdaQnHVW6U7gSJhSd5Pmzb2NfQhAAAJVCCDMKhiNGzkQpvQekqafZUq9GpKUdqTUbGsvq9RlVhWm9Btalt1Gxb8QgAAEbAggTBuu1Vq9Z0zO10n2Gg5J8yjL3Gtv71otWcZEGepbhSnXYsuyofs4BwEIQKAGAYRZg6JlGwnZpdu9L81QlunWz90XUUpxPx/NbUPr58hS7kGYSo4tBCDQgwDC7EE9p89CYUpXfpYp52pliNLWmZIiSxGkLsdKH64wWZY9Q517IACBEgIIs4Se8b05y7HuUPwss1SYPbPKh3m9f61EzvEZpkuGfQhAoAUBhNmC8sk+zgpTunOlGVuWTckyU+qkTi8lq9xrSzJMKcjyjoF/IACBxgQQZmPgWd1lLsf6bbvSDGWZUl+zR9l3P5fU8+45qXOmlIpS+9yWaPnKiPJgCwEItCWAMNvyTu6tJLvUTlxhSntSQgL0s0j/WNs72qpktZ70VUuW0ibCVLJsIQCBHgQQZg/qCX3WEOZHN/9uvx7OXZp1pRjb/7j/fSckRL+OHktd94UdPV+yRZgl9LgXAhAoJYAwSwla3V+4HOsOy800Q0uzvgj13lA2qtf2tqVZ5SbG109dIMxPSDgBAQg0JIAwG8LO6qqiMKXfI2lKHTfTlOMzpVSWe30izD06XIMABKwJIExrwifar7oc+96/K0x3adYdXokwLUWpY0SYSoItBCDQgwDC7EH9qM/K2eVDd4HPM/X6WWHWlGVsOVbH+PTEn+v6zYI9CECgJQGE2ZJ2al+GwnQzzdjnmamfXdYUZSoahJlOipoQgEBdAgizLs/i1iyWYz8N6j3LlPO+NFOzzD6ylBGTYQoFCgQg0J4AwmzPfL9Ho+zynlm+/9UTN8sMfZ65J81+olRsCFNJsIUABNoSQJhteR/3VlmYrigfOneyTF+aMWH2l6XMAGE+xJEDCECgGQGE2Qz1cUc1l2OjonwfhptlyqmjpdkxZCkjRZhCgQIBCLQngDDbM4/2WEOYR6J86Hwny9R6rUR5/HasjghhKgm2EIBAWwIIsy3v/d4KlmOzRPk+CjfLFFlL0TdkZVm29q+2e++2cIMwCwFyOwQgcJIAwjwJrvZtNbLL3DH5wnx7e3t6fn7+kGar7DJv3Agzjxe1IQCBWgQQZi2She2cEeaZrPLTMH8ty0rfIkstLy8v993Rskx+049GiC0EINCDAMLsQT3UZ8ZybBVRvo9B2nJlqUMTaY4mzG1sZJgaI7YQgEBbAgizLe94bwnCrClKdyAhaerS7HjLsgjTjR37EIBAOwIIsx3raE9Hy7FWotQBhYQp10Sa4734gzA1bmwhAIG2BBBmW97h3hKyy/CN9c5+/fPPYGPjSRNhBgPFSQhAwJwAwjRHnNBBQJjWWaU/qliWKfV+/PifX73Kcfp3L7fueOmnCnYagQAEThJAmCfB1brNX45tLUqdRw9hat95WzLMPF7UhgAEahFAmLVInmxHhdlLlO6w/WVZWY7V72aO81kmwnRjxj4EINCOAMJsxzrYkwozeLHxSTfLVFnKEMb6HBNhNn4s6A4CEHgngDAHfBREon65vf9pLv987WPJMl1ZavtWn2Nq++lbhJnOipoQgEBNAgizJs3GbVmI1c0ydToiUCm9l2V56UcjwhYCEOhBAGH2oN64z5BYZQixrNX9LPPHjx/30d6Xjm+v9/1e/yDMXuTpFwIQEAII86LPgQgw9CvxdDl2+9zy5tH54h33OGRJtgd1+oQABBDmZZ+BmDAFSFiWcqW/MMkyJQ4UCECgBwEyzB7UB+gzJMy4KLcB11iW3YT3epoAwjyNjhshAIFCAgizEOCMt7uy3F+CDc2ub5aJMEMx4RwEINCCAMJsQXmwPlSYKkt9sSdtmAgzjRO1IACB1QggzNUimjAfEaaW281/sUevhLc1lmXDLaedJcNM40QtCECgPgGEWZ/p8C1u0ssTpU4KYSoJthCAwNUIIMyrRbzKfPsty5JhVgkgjUAAAicIIMwT0K5+S88sE2Fe/elj/hDoRwBh9mM/bc8Ic9rQMXAIQKCAAMIsgHftW/ssy5JhXvupY/YQ6EkAYfakP3HfvbJMhDnxQ8PQITA5AYQ5eQB7Db+1MEWUUnK/BnO/iX8gAAEIVCCAMCtAvG4TbZZlySqv+4QxcwiMRABhjhSN6cZiK0yyyukeCAYMgaUJIMylw2s7uZRl2S07fD05EP6U10lw3AYBCBgQQJgGUK/VZP0skyXYaz1BzBYCsxBAmLNEathx1hMmS7DDBpmBQQACvwggTB6DIgIpy7IpHZBVplCiDgQg0JMAwuxJf4G+S4VJVrnAQ8AUIHARAgjzIoG2nWbJsiwv9tjGhtYhAIFaBBBmLZIXbic3yySrvPDDwtQhMDEBhDlx8EYZeo4w+axylKgxDghAIJcAwswlRv0IgeNlWWQZQcdpCEBgCgIIc4owzTDI38LcxPj6MWiWYD9QsAMBCExMAGFOHLyRhh5bliWrHClKjAUCECghgDBL6HGvR+Axy5SL/HURDxGHEIDAtAQQ5rShG3HgmzDJKkeMDWOCAARKCSDMUoLc/0FAlmWlkFV+IGEHAhBYiADCXCiYTAUCEIAABOwIIEw7trQMAQhAAAILEUCYCwWTqUAAAhCAgB0BhGnHlpYhAAEIQGAhAghzoWAyFQhAAAIQsCOAMO3Y0jIEIAABCCxEAGEuFEymAgEIQAACdgQQph1bWoYABCAAgYUIIMyFgslUIAABCEDAjgDCtGNLyxCAAAQgsBABhLlQMJkKBCAAAQjYEUCYdmxpGQIQgAAEFiKAMBcKJlOBAAQgAAE7AgjTji0tQwACEIDAQgQQ5kLBZCoQgAAEIGBHAGHasaVlCEAAAhBYiADCXCiYTAUCEIAABOwIIEw7trQMAQhAAAILEUCYCwWTqUAAAhCAgB0BhGnHlpYhAAEIQGAhAghzoWAyFQhAAAIQsCOAMO3Y0jIEIAABCCxEAGEuFEymAgEIQAACdgQQph1bWoYABCAAgYUIIMyFgslUIAABCEDAjgDCtGNLyxCAAAQgsBABhLlQMJkKBCAAAQjYEUCYdmxpGQIQgAAEFiKAMBcKJlOBAAQgAAE7AgjTji0tQwACEIDAQgQQ5kLBZCoQgAAEIGBHAGHasaVlCEAAAhBYiADCXCiYTAUCEIAABOwIIEw7trQMAQhAAAILEUCYCwWTqUAAAhCAgB0BhGnHlpYhAAEIQGAhAghzoWAyFQhAAAIQsCOAMO3Y0jIEIAABCCxEAGEuFEymAgEIQAACdgQQph1bWoYABCAAgYUIIMyFgslUIAABCEDAjgDCtGNLyxCAAAQgsBABhLlQMJkKBCAAAQjYEUCYdmxpGQIQgAAEFiKAMBcKJlOBAAQgAAE7AgjTji0tQwACEIDAQgQQ5kLBZCoQgAAEIGBHAGHasaVlCEAAAhBYiADCXCiYTAUCEIAABOwI/B8L57GtNOPvLwAAAABJRU5ErkJggg==;" parent="1" vertex="1">
          <mxGeometry x="179" y="480" width="460" height="364" as="geometry" />
        </mxCell>
        <mxCell id="EeBO1cUo_XQBmEY2QI9m-2" value="" style="endArrow=classic;html=1;rounded=0;dashed=1;" edge="1" parent="1">
          <mxGeometry width="50" height="50" relative="1" as="geometry">
            <mxPoint x="396" y="672" as="sourcePoint" />
            <mxPoint x="620" y="675" as="targetPoint" />
          </mxGeometry>
        </mxCell>
        <mxCell id="EeBO1cUo_XQBmEY2QI9m-3" value="" style="endArrow=classic;html=1;rounded=0;dashed=1;" edge="1" parent="1">
          <mxGeometry width="50" height="50" relative="1" as="geometry">
            <mxPoint x="397" y="672" as="sourcePoint" />
            <mxPoint x="588" y="543" as="targetPoint" />
          </mxGeometry>
        </mxCell>
        <mxCell id="EeBO1cUo_XQBmEY2QI9m-4" value="" style="endArrow=classic;html=1;curved=1;dashed=1;dashPattern=1 1;" edge="1" parent="1">
          <mxGeometry width="50" height="50" relative="1" as="geometry">
            <mxPoint x="585" y="673" as="sourcePoint" />
            <mxPoint x="550" y="570" as="targetPoint" />
            <Array as="points">
              <mxPoint x="594" y="622" />
            </Array>
          </mxGeometry>
        </mxCell>
        <mxCell id="EeBO1cUo_XQBmEY2QI9m-5" value="$$\gamma_m$$" style="text;html=1;align=center;verticalAlign=middle;resizable=0;points=[];autosize=1;strokeColor=none;fillColor=none;dashed=1;dashPattern=1 1;" vertex="1" parent="1">
          <mxGeometry x="540" y="600" width="110" height="30" as="geometry" />
        </mxCell>
        <mxCell id="EeBO1cUo_XQBmEY2QI9m-6" value="" style="endArrow=classic;html=1;rounded=0;" edge="1" parent="1">
          <mxGeometry width="50" height="50" relative="1" as="geometry">
            <mxPoint x="396" y="672" as="sourcePoint" />
            <mxPoint x="350" y="600" as="targetPoint" />
          </mxGeometry>
        </mxCell>
        <mxCell id="EeBO1cUo_XQBmEY2QI9m-7" value="" style="endArrow=classic;html=1;rounded=0;" edge="1" parent="1">
          <mxGeometry width="50" height="50" relative="1" as="geometry">
            <mxPoint x="396" y="672" as="sourcePoint" />
            <mxPoint x="396" y="781" as="targetPoint" />
          </mxGeometry>
        </mxCell>
        <mxCell id="EeBO1cUo_XQBmEY2QI9m-8" value="$$m\mathbf{g}$$" style="text;html=1;align=center;verticalAlign=middle;resizable=0;points=[];autosize=1;strokeColor=none;fillColor=none;shadow=1;" vertex="1" parent="1">
          <mxGeometry x="370" y="770" width="110" height="30" as="geometry" />
        </mxCell>
        <mxCell id="EeBO1cUo_XQBmEY2QI9m-9" value="$$m V_a \dot{\gamma}_m$$" style="text;html=1;align=center;verticalAlign=middle;resizable=0;points=[];autosize=1;strokeColor=none;fillColor=none;shadow=1;" vertex="1" parent="1">
          <mxGeometry x="270" y="570" width="180" height="30" as="geometry" />
        </mxCell>
        <mxCell id="EeBO1cUo_XQBmEY2QI9m-10" value="" style="endArrow=classic;html=1;rounded=0;" edge="1" parent="1">
          <mxGeometry width="50" height="50" relative="1" as="geometry">
            <mxPoint x="384" y="664" as="sourcePoint" />
            <mxPoint x="357" y="645" as="targetPoint" />
          </mxGeometry>
        </mxCell>
        <mxCell id="EeBO1cUo_XQBmEY2QI9m-11" value="" style="endArrow=classic;html=1;rounded=0;" edge="1" parent="1">
          <mxGeometry width="50" height="50" relative="1" as="geometry">
            <mxPoint x="409" y="687" as="sourcePoint" />
            <mxPoint x="430" y="710" as="targetPoint" />
          </mxGeometry>
        </mxCell>
        <mxCell id="EeBO1cUo_XQBmEY2QI9m-12" value="" style="endArrow=none;html=1;rounded=0;dashed=1;endFill=0;" edge="1" parent="1">
          <mxGeometry width="50" height="50" relative="1" as="geometry">
            <mxPoint x="396" y="672" as="sourcePoint" />
            <mxPoint x="411" y="689" as="targetPoint" />
          </mxGeometry>
        </mxCell>
        <mxCell id="EeBO1cUo_XQBmEY2QI9m-13" value="" style="endArrow=none;html=1;rounded=0;dashed=1;endFill=0;" edge="1" parent="1">
          <mxGeometry width="50" height="50" relative="1" as="geometry">
            <mxPoint x="396" y="672" as="sourcePoint" />
            <mxPoint x="384" y="664" as="targetPoint" />
          </mxGeometry>
        </mxCell>
        <mxCell id="EeBO1cUo_XQBmEY2QI9m-14" value="$$\mathbf{f}_z$$" style="text;html=1;align=center;verticalAlign=middle;resizable=0;points=[];autosize=1;strokeColor=none;fillColor=none;shadow=1;" vertex="1" parent="1">
          <mxGeometry x="394.95000000000005" y="700" width="110" height="30" as="geometry" />
        </mxCell>
        <mxCell id="EeBO1cUo_XQBmEY2QI9m-15" value="$$\mathbf{f}_y$$" style="text;html=1;align=center;verticalAlign=middle;resizable=0;points=[];autosize=1;strokeColor=none;fillColor=none;shadow=1;" vertex="1" parent="1">
          <mxGeometry x="290" y="620" width="110" height="30" as="geometry" />
        </mxCell>
        <mxCell id="EeBO1cUo_XQBmEY2QI9m-16" value="$$\phi_m$$" style="text;html=1;strokeColor=none;fillColor=none;align=center;verticalAlign=middle;whiteSpace=wrap;rounded=0;" vertex="1" parent="1">
          <mxGeometry x="540" y="510" width="60" height="30" as="geometry" />
        </mxCell>
        <mxCell id="EeBO1cUo_XQBmEY2QI9m-17" value="" style="endArrow=classic;html=1;curved=1;dashed=1;" edge="1" parent="1">
          <mxGeometry width="50" height="50" relative="1" as="geometry">
            <mxPoint x="553.4200000000001" y="550" as="sourcePoint" />
            <mxPoint x="563.4200000000001" y="570" as="targetPoint" />
            <Array as="points">
              <mxPoint x="563.4200000000001" y="540" />
              <mxPoint x="580" y="560" />
            </Array>
          </mxGeometry>
        </mxCell>
      </root>
    </mxGraphModel>
  </diagram>
</mxfile>
